<svg xmlns="http://www.w3.org/2000/svg" version="1.1" xmlns:xlink="http://www.w3.org/1999/xlink" xmlns:svgjs="http://svgjs.com/svgjs" width="1440" height="560" preserveAspectRatio="none" viewBox="0 0 1440 560"><g mask="url(&quot;#SvgjsMask1002&quot;)" fill="none"><rect width="1440" height="560" x="0" y="0" fill="rgba(36, 38, 41, 1)"></rect><path d="M766.03 574.18C875.41 566.16 922.55 370.42 1144.25 351.94 1365.94 333.46 1410.1 116.09 1522.46 105.54" stroke="rgba(44, 182, 125, 1)" stroke-width="2"></path><path d="M832.55 633.04C951.51 616.74 984.35 363.76 1213.17 340.1 1441.99 316.44 1483.68 124.21 1593.79 116.1" stroke="rgba(44, 182, 125, 1)" stroke-width="2"></path><path d="M322.15 602.21C484.63 598.64 604.07 385.43 931.86 376.74 1259.65 368.05 1376.18 124.35 1541.57 119.14" stroke="rgba(44, 182, 125, 1)" stroke-width="2"></path><path d="M109.87 568.94C292.6 563.65 428.26 298.78 786.64 292.04 1145.02 285.3 1287.28 98 1463.41 96.04" stroke="rgba(44, 182, 125, 1)" stroke-width="2"></path><path d="M529.3 581.92C666.55 542.97 616.85 159.96 911.44 158.09 1206.04 156.22 1480.96 308.57 1675.73 309.29" stroke="rgba(44, 182, 125, 1)" stroke-width="2"></path></g><defs><mask id="SvgjsMask1002"><rect width="1440" height="560" fill="#ffffff"></rect></mask></defs></svg>