<svg xmlns="http://www.w3.org/2000/svg" version="1.1" xmlns:xlink="http://www.w3.org/1999/xlink" xmlns:svgjs="http://svgjs.com/svgjs" width="400" height="600" preserveAspectRatio="none" viewBox="0 0 400 600"><g mask="url(&quot;#SvgjsMask1001&quot;)" fill="none"><rect width="400" height="600" x="0" y="0" fill="rgba(36, 38, 41, 1)"></rect><path d="M63.6 693.33C151.33 619.56 135.76 284.65 246.07 272.73 356.39 260.81 367.74 428.61 428.55 440.73" stroke="rgba(44, 182, 125, 1)" stroke-width="2"></path><path d="M139.34 709.87C220.59 604.51 184.99 227.02 291.71 199.95 398.43 172.88 386.32 371.48 444.08 391.95" stroke="rgba(44, 182, 125, 1)" stroke-width="2"></path><path d="M93.67 625.03C138.03 623.29 141.01 581.06 255.04 550.95 369.07 520.84 347.5 318.83 416.41 280.95" stroke="rgba(44, 182, 125, 1)" stroke-width="2"></path><path d="M232.64 680.75C292.12 613.18 241.23 417.01 347.44 339.46 453.66 261.91 420.39 220.13 462.25 207.46" stroke="rgba(44, 182, 125, 1)" stroke-width="2"></path><path d="M83.85 709.93C179.94 624.98 161.52 249.55 281.09 236.36 400.66 223.17 410.33 418.32 478.33 434.36" stroke="rgba(44, 182, 125, 1)" stroke-width="2"></path></g><defs><mask id="SvgjsMask1001"><rect width="400" height="600" fill="#ffffff"></rect></mask></defs></svg>